# xmcd CD database file
#
# Track frame offsets:
#	150
#	34577
#	54765
#	64367
#	84882
#	94750
#	105655
#	133442
#	177090
#
# Disc length: 3318 seconds
#
# Revision: 0
# Processed by: cddbd v1.5.1PL0 Copyright (c) Steve Scherf et al.
# Submitted via: CDex 1.51
#
DISCID=6f0cf409
DTITLE=松本源之助 - 江戸の祭り囃子　全曲集
DYEAR=1900
DGENRE=Jazz
TTITLE0=お神輿囃子
TTITLE1=屋台囃子
TTITLE2=昇殿
TTITLE3=鎌倉
TTITLE4=四丁目（玉入り）
TTITLE5=屋台囃子（切）
TTITLE6=にんば
TTITLE7=江戸の祭り囃子
TTITLE8=神楽囃子（狐の種まき）
EXTD=
EXTT0=
EXTT1=
EXTT2=
EXTT3=
EXTT4=
EXTT5=
EXTT6=
EXTT7=
EXTT8=
PLAYORDER=
